<?xml version="1.0" encoding="UTF-8"?>
<svg id="Layer_1" xmlns="http://www.w3.org/2000/svg" version="1.1" viewBox="0 0 1190.6 841.9">
  <!-- Generator: Adobe Illustrator 30.0.0, SVG Export Plug-In . SVG Version: 2.1.1 Build 123)  -->
  <defs>
    <style>
      .st0 {
        fill: #fff;
      }
    </style>
  </defs>
  <path class="st0" d="M264.1,446.3v-68.4c0-9.5-.6-13-5.6-16.1v-.4h22.8v.4c-5.1,3.1-5.7,6.6-5.7,16.1v68.1c0,20.5-8.8,30.4-26.1,32.1v-5.2c11.2-2.1,14.7-9.1,14.7-26.7h0Z"/>
  <path class="st0" d="M289.1,428.1c0-19.9,12.5-33.7,32-33.7s31.9,13.8,31.9,33.7-12.4,33.8-31.9,33.8-32-13.8-32-33.8ZM321.1,456.9c13.1,0,21.2-10.9,21.2-28.9s-8.1-28.7-21.2-28.7-21.2,10.8-21.2,28.7,7.9,28.9,21.2,28.9Z"/>
  <path class="st0" d="M361.9,459.4c4.7-3.1,5.2-7.2,5.2-16.1v-30.3c0-9.5-.5-13-5.2-16.1v-.4h17.8c-1.6,3-2,6.5-2.1,14.4,3.9-9,12-16.5,24.3-16.5s19.8,6.9,19.8,23.9v25c0,9,.7,13,5.1,16.1v.4h-20.4v-.4c4.3-3.1,4.8-7.2,4.8-16.1v-24.8c0-12.2-4.6-17.6-13.8-17.6s-17.6,8.2-19.8,17.8v24.6c0,9,.7,13,5.1,16.1v.4h-20.8v-.4Z"/>
  <path class="st0" d="M464.9,459.4c5.1-3.1,5.7-7.2,5.7-16.1v-65.4c0-9.5-.7-13-5.7-16.1v-.4h22.9v.4c-5.1,3.1-5.7,6.6-5.7,16.1v27.7h49.9v-27.7c0-9.5-.5-13-5.7-16.1v-.4h23v.4c-5.2,3.1-5.7,6.6-5.7,16.1v65.4c0,9,.5,13,5.7,16.1v.4h-23v-.4c5.2-3.1,5.7-7.2,5.7-16.1v-32.2h-49.9v32.2c0,9,.7,13,5.7,16.1v.4h-22.9v-.4Z"/>
  <path class="st0" d="M556.4,428.7c0-20.8,13.4-34.3,31.3-34.3s28.9,12.2,29.1,29.5h-49.8v3c0,15.9,7,28.3,22.1,28.3s19.6-8.6,22.2-19.4h5.9c-2.7,14.6-12.6,26.1-30,26.1s-30.7-12.9-30.7-33.3h0ZM606.3,419c-.8-11.1-7.2-19.8-18.7-19.8s-17.9,7.9-20,19.8h38.8,0Z"/>
  <path class="st0" d="M620.2,397v-.5h20.4v.5c-3.8,1.4-3.6,4.7-1.6,11.1l12.6,37.5,14.2-46h7.3l14.7,46.9,12.6-38.2c2.1-6.4,2.5-9.9-1.4-11.2v-.5h15.2v.5c-3.1,1.8-5.2,4.8-7.3,11.3l-15.6,45c-1,2.7-1.6,4.4-1.8,6.5h-7.2l-15.1-48.4-12.6,41.1c-1.2,3.6-1.6,5.2-1.8,7.3h-7.3l-17.8-51.1c-2.2-6.5-3.9-10.1-7.5-11.7h0Z"/>
  <path class="st0" d="M720.5,459.4c4.7-3.1,5.2-7.2,5.2-16.1v-30.4c0-9.5-.4-13-4.7-15.7v-.4l15.2-.9v47.5c0,9,.5,13,5.2,16.1v.4h-20.9v-.4h0ZM725,366.2h11.2v13.8h-11.2v-13.8Z"/>
  <path class="st0" d="M759.6,440.2v-38.5h-13.7v-5.2h13.7v-17.9l9.8-8.1h.7v26h21.5v5.2h-21.5v38.4c0,11.4,4.6,14.3,10.5,14.3s10.4-3.4,13.5-9.9l1.3,4c-3.4,7.9-10.1,12.5-18.5,12.5s-17.3-4.7-17.3-20.8Z"/>
  <path class="st0" d="M799.6,440.2v-38.5h-13.7v-5.2h13.7v-17.9l9.8-8.1h.7v26h21.5v5.2h-21.5v38.4c0,11.4,4.6,14.3,10.5,14.3s10.4-3.4,13.5-9.9l1.3,4c-3.4,7.9-10.1,12.5-18.5,12.5s-17.3-4.7-17.3-20.8Z"/>
</svg>